<svg width="143" height="103" viewBox="0 0 143 103" fill="none" xmlns="http://www.w3.org/2000/svg">
<path d="M32.05 103C27.85 103 25.75 100.9 25.75 96.7V19.3L29.2 16.9L12.7 32.35C11.45 33.55 10.125 34.275 8.725 34.525C7.325 34.725 5.95 34.15 4.6 32.8C1.9 30.1 2.05 27.25 5.05 24.25L25.15 4.45C27.25 2.35 29.85 1.3 32.95 1.3C36.55 1.3 38.35 3.39999 38.35 7.59999V96.7C38.35 100.9 36.25 103 32.05 103ZM100.101 102.85C88.6508 102.85 80.1758 100.125 74.6758 94.675C69.2258 89.175 66.5008 80.7 66.5008 69.25V34.6C66.5008 23.05 69.2258 14.55 74.6758 9.09999C80.1758 3.64999 88.6508 0.999996 100.101 1.15H109.101C120.601 1.15 129.076 3.875 134.526 9.32499C139.976 14.725 142.701 23.2 142.701 34.75V69.25C142.701 80.7 139.976 89.175 134.526 94.675C129.076 100.125 120.601 102.85 109.101 102.85H100.101ZM100.101 90.25H109.101C114.451 90.25 118.651 89.6 121.701 88.3C124.751 87 126.901 84.825 128.151 81.775C129.451 78.725 130.101 74.55 130.101 69.25V34.75C130.101 29.4 129.451 25.2 128.151 22.15C126.901 19.1 124.751 16.95 121.701 15.7C118.651 14.4 114.451 13.75 109.101 13.75H100.101C94.8008 13.65 90.6258 14.225 87.5758 15.475C84.5258 16.675 82.3508 18.825 81.0508 21.925C79.7508 24.975 79.1008 29.2 79.1008 34.6V69.25C79.1008 74.55 79.7258 78.725 80.9758 81.775C82.2758 84.825 84.4508 87 87.5008 88.3C90.5508 89.6 94.7508 90.25 100.101 90.25ZM102.801 59.35C98.8008 59.35 96.8008 57.35 96.8008 53.35V49.6C96.8008 45.7 98.8008 43.75 102.801 43.75H106.401C110.201 43.75 112.101 45.7 112.101 49.6V53.35C112.101 57.35 110.201 59.35 106.401 59.35H102.801Z" fill="#2F353D"/>
</svg>
