<svg width="174" height="58" viewBox="0 0 174 58" fill="none" xmlns="http://www.w3.org/2000/svg">
<path d="M36.564 58H5.148C2.74 58 1.536 56.824 1.536 54.472C1.536 50.72 2.124 47.528 3.3 44.896C4.504 42.236 6.03 39.996 7.878 38.176C9.754 36.328 11.742 34.774 13.842 33.514C15.942 32.226 17.888 31.064 19.68 30.028C22.788 28.264 25.378 26.738 27.45 25.45C29.55 24.162 31.118 22.846 32.154 21.502C33.19 20.158 33.708 18.52 33.708 16.588C33.708 13.256 33.106 11.016 31.902 9.868C30.726 8.692 28.5 8.104 25.224 8.104H16.236C13.604 8.104 11.658 8.454 10.398 9.154C9.138 9.854 8.34 11.156 8.004 13.06C7.808 14.18 7.43 15.034 6.87 15.622C6.31 16.21 5.456 16.504 4.308 16.504C3.132 16.504 2.236 16.196 1.62 15.58C1.004 14.936 0.752 14.012 0.864 12.808C1.452 8.86 3.006 5.92 5.526 3.988C8.046 2.028 11.616 1.048 16.236 1.048H25.224C30.488 1.048 34.394 2.322 36.942 4.87C39.49 7.418 40.764 11.324 40.764 16.588C40.764 19.948 39.938 22.762 38.286 25.03C36.634 27.27 34.464 29.258 31.776 30.994C29.088 32.702 26.204 34.424 23.124 36.16C20.884 37.448 18.756 38.736 16.74 40.024C14.752 41.312 13.044 42.81 11.616 44.518C10.216 46.226 9.292 48.368 8.844 50.944H36.564C38.916 50.944 40.092 52.12 40.092 54.472C40.092 56.824 38.916 58 36.564 58ZM71.5244 57.916C65.1124 57.916 60.3664 56.39 57.2864 53.338C54.2344 50.258 52.7084 45.512 52.7084 39.1V19.696C52.7084 13.228 54.2344 8.468 57.2864 5.416C60.3664 2.364 65.1124 0.879998 71.5244 0.963998H76.5644C83.0044 0.963998 87.7504 2.49 90.8024 5.542C93.8544 8.566 95.3804 13.312 95.3804 19.78V39.1C95.3804 45.512 93.8544 50.258 90.8024 53.338C87.7504 56.39 83.0044 57.916 76.5644 57.916H71.5244ZM71.5244 50.86H76.5644C79.5604 50.86 81.9124 50.496 83.6204 49.768C85.3284 49.04 86.5324 47.822 87.2324 46.114C87.9604 44.406 88.3244 42.068 88.3244 39.1V19.78C88.3244 16.784 87.9604 14.432 87.2324 12.724C86.5324 11.016 85.3284 9.812 83.6204 9.112C81.9124 8.384 79.5604 8.02 76.5644 8.02H71.5244C68.5564 7.964 66.2184 8.286 64.5104 8.986C62.8024 9.658 61.5844 10.862 60.8564 12.598C60.1284 14.306 59.7644 16.672 59.7644 19.696V39.1C59.7644 42.068 60.1144 44.406 60.8144 46.114C61.5424 47.822 62.7604 49.04 64.4684 49.768C66.1764 50.496 68.5284 50.86 71.5244 50.86ZM73.0364 33.556C70.7964 33.556 69.6764 32.436 69.6764 30.196V28.096C69.6764 25.912 70.7964 24.82 73.0364 24.82H75.0524C77.1804 24.82 78.2444 25.912 78.2444 28.096V30.196C78.2444 32.436 77.1804 33.556 75.0524 33.556H73.0364ZM122.666 58C120.314 58 119.138 56.824 119.138 54.472V11.128L121.07 9.784L111.83 18.436C111.13 19.108 110.388 19.514 109.604 19.654C108.82 19.766 108.05 19.444 107.294 18.688C105.782 17.176 105.866 15.58 107.546 13.9L118.802 2.812C119.978 1.636 121.434 1.048 123.17 1.048C125.186 1.048 126.194 2.224 126.194 4.576V54.472C126.194 56.824 125.018 58 122.666 58ZM149.39 58C147.01 58 145.862 56.768 145.946 54.304C146.03 49.992 146.31 46.324 146.786 43.3C147.262 40.248 147.99 37.63 148.97 35.446C149.95 33.234 151.224 31.288 152.792 29.608C154.388 27.9 156.334 26.248 158.63 24.652C160.31 23.336 161.71 21.894 162.83 20.326C163.978 18.758 164.86 16.98 165.476 14.992C166.12 12.976 166.526 10.68 166.694 8.104H140.15C137.798 8.104 136.622 6.928 136.622 4.576C136.622 2.224 137.798 1.048 140.15 1.048H170.306C172.658 1.048 173.834 2.224 173.834 4.576C173.834 8.58 173.442 12.164 172.658 15.328C171.902 18.464 170.698 21.264 169.046 23.728C167.422 26.192 165.322 28.404 162.746 30.364C160.898 31.652 159.358 32.968 158.126 34.312C156.894 35.628 155.914 37.168 155.186 38.932C154.458 40.668 153.926 42.782 153.59 45.274C153.254 47.738 153.058 50.748 153.002 54.304C152.918 56.768 151.714 58 149.39 58Z" fill="#2F353D"/>
</svg>
