<svg width="60" height="60" viewBox="0 0 60 60" fill="none" xmlns="http://www.w3.org/2000/svg">
<rect width="60" height="60" fill="white"/>
<rect width="40" height="40" transform="translate(10 10)" fill="white"/>
<path d="M23.3334 18.3333H18.6667C17.5622 18.3333 16.6667 19.2288 16.6667 20.3333V43C16.6667 44.1046 17.5622 45 18.6667 45H41.3334C42.438 45 43.3334 44.1046 43.3334 43V20.3333C43.3334 19.2288 42.438 18.3333 41.3334 18.3333H36.6667M23.3334 18.3333V17C23.3334 15.8954 24.2288 15 25.3334 15H34.6667C35.7713 15 36.6667 15.8954 36.6667 17V18.3333M23.3334 18.3333V19.6667C23.3334 20.7712 24.2288 21.6667 25.3334 21.6667H34.6667C35.7713 21.6667 36.6667 20.7712 36.6667 19.6667V18.3333M23.3334 38.3333L27.1982 33.1802C27.8351 32.3311 29.0244 32.1273 29.9076 32.7161L31.4483 33.7433C32.4493 34.4106 33.8086 34.0496 34.3466 32.9736L36.6667 28.3333" stroke="black" stroke-width="2" stroke-linecap="round" stroke-linejoin="round"/>
</svg>
