<svg width="60" height="60" viewBox="0 0 60 60" fill="none" xmlns="http://www.w3.org/2000/svg">
<rect width="60" height="60" fill="white"/>
<path d="M45 21.6667C45 25.3486 38.2843 28.3333 30 28.3333C21.7157 28.3333 15 25.3486 15 21.6667M45 21.6667C45 17.9848 38.2843 15 30 15C21.7157 15 15 17.9848 15 21.6667M45 21.6667V31.6667M15 21.6667V30M15 30V38.3333C15 40.9509 18.3943 43.2161 23.3333 44.307M15 30C15 32.6176 18.3943 34.8828 23.3333 35.9737" stroke="#2F353D" stroke-width="2" stroke-linecap="round" stroke-linejoin="round"/>
<path d="M36.6666 40H36.6835M28.4375 39.6403C29.1508 38.4938 31.7296 35 36.6666 35C41.6036 35 44.1823 38.4938 44.8956 39.6403C45.0347 39.8638 45.0347 40.1362 44.8956 40.3597C44.1823 41.5062 41.6036 45 36.6666 45C31.7296 45 29.1508 41.5062 28.4375 40.3597C28.2985 40.1362 28.2985 39.8638 28.4375 39.6403Z" stroke="#2F353D" stroke-width="2" stroke-linecap="round" stroke-linejoin="round"/>
</svg>
