<svg width="60" height="60" viewBox="0 0 60 60" fill="none" xmlns="http://www.w3.org/2000/svg">
<rect width="60" height="60" fill="white"/>
<path d="M15 23.3334V18.6667C15 17.5622 15.8954 16.6667 17 16.6667H43C44.1046 16.6667 45 17.5622 45 18.6667V23.3334M15 23.3334V41.3334C15 42.438 15.8954 43.3334 17 43.3334H23.3333M15 23.3334H45M45 23.3334V25.0001" stroke="#2F353D" stroke-width="2" stroke-linecap="round" stroke-linejoin="round"/>
<path d="M46.3333 38.3333C46.3333 43.8561 41.8561 48.3333 36.3333 48.3333M46.3333 38.3333C46.3333 32.8104 41.8561 28.3333 36.3333 28.3333M46.3333 38.3333H26.3333M36.3333 48.3333C30.8104 48.3333 26.3333 43.8561 26.3333 38.3333M36.3333 48.3333C29.6666 38.3333 33.5555 30.8333 36.3333 28.3333M36.3333 48.3333C42.9999 38.3333 39.111 30.8333 36.3333 28.3333M26.3333 38.3333C26.3333 32.8104 30.8104 28.3333 36.3333 28.3333" stroke="#2F353D" stroke-width="2" stroke-linecap="round" stroke-linejoin="round"/>
</svg>
