<svg width="30" height="30" viewBox="0 0 30 30" fill="none" xmlns="http://www.w3.org/2000/svg">
<path d="M16 7.5C16 6.94772 15.5523 6.5 15 6.5C14.4477 6.5 14 6.94772 14 7.5L16 7.5ZM14.2929 29.2071C14.6834 29.5976 15.3166 29.5976 15.7071 29.2071L22.0711 22.8431C22.4616 22.4526 22.4616 21.8195 22.0711 21.4289C21.6805 21.0384 21.0474 21.0384 20.6569 21.4289L15 27.0858L9.34315 21.4289C8.95262 21.0384 8.31946 21.0384 7.92893 21.4289C7.53841 21.8195 7.53841 22.4526 7.92893 22.8431L14.2929 29.2071ZM14 7.5L14 28.5L16 28.5L16 7.5L14 7.5Z" fill="#2F353D"/>
<circle cx="15" cy="2" r="1" fill="#2F353D"/>
</svg>
