<svg width="60" height="60" viewBox="0 0 60 60" fill="none" xmlns="http://www.w3.org/2000/svg">
<rect width="60" height="60" fill="white"/>
<path d="M15 23.3334V18.6667C15 17.5622 15.8954 16.6667 17 16.6667H43C44.1046 16.6667 45 17.5622 45 18.6667V23.3334M15 23.3334V41.3334C15 42.438 15.8954 43.3334 17 43.3334H26.6667M15 23.3334H45M45 23.3334V28.3334" stroke="black" stroke-width="2" stroke-linecap="round" stroke-linejoin="round"/>
<path d="M41.6248 41.6249C40.5692 42.6805 39.1108 43.3334 37.5 43.3334C34.2783 43.3334 31.6667 40.7217 31.6667 37.5001C31.6667 34.2784 34.2783 31.6667 37.5 31.6667C40.7217 31.6667 43.3333 34.2784 43.3333 37.5001C43.3333 39.1109 42.6804 40.5692 41.6248 41.6249ZM41.6248 41.6249L45 45.0001" stroke="black" stroke-width="2" stroke-linecap="round" stroke-linejoin="round"/>
</svg>
