<svg width="60" height="60" viewBox="0 0 60 60" fill="none" xmlns="http://www.w3.org/2000/svg">
<rect width="60" height="60" fill="white"/>
<rect width="40" height="40" transform="translate(10 10)" fill="white"/>
<path d="M33.0711 29.8283L34.4853 28.4141C35.2663 27.6331 36.5327 27.6331 37.3137 28.4141L38.0208 29.1212C38.8019 29.9023 38.8019 31.1686 38.0208 31.9497L36.6066 33.3639M33.0711 29.8283L31.6569 31.2426C29.8891 33.246 27.4142 38.3136 31.6569 42.5563C35.8995 46.7989 40.9671 44.324 42.9706 42.5563L44.3848 41.1421M33.0711 29.8283L36.6066 33.3639M36.6066 33.3639L35.1924 34.7781C34.4853 35.4852 33.4953 37.3237 35.1924 39.0207C36.8894 40.7178 38.7279 39.7278 39.435 39.0207L40.8492 37.6065M40.8492 37.6065L42.2635 36.1923C43.0445 35.4113 44.3108 35.4113 45.0919 36.1923L45.799 36.8994C46.58 37.6805 46.58 38.9468 45.799 39.7278L44.3848 41.1421M40.8492 37.6065L44.3848 41.1421" stroke="#2F353D" stroke-width="2" stroke-linecap="round" stroke-linejoin="round"/>
<path d="M15 23.3332V18.6665C15 17.5619 15.8954 16.6665 17 16.6665H43C44.1046 16.6665 45 17.5619 45 18.6665V23.3332M15 23.3332V41.3332C15 42.4377 15.8954 43.3332 17 43.3332H26M15 23.3332H45M45 23.3332V28.9999" stroke="#2F353D" stroke-width="2" stroke-linecap="round" stroke-linejoin="round"/>
</svg>
